<svg xmlns="http://www.w3.org/2000/svg" width="132" height="76" viewBox="0 0 132 76" fill="none">
  <rect width="132" height="76" fill="#FBFAF7"/>
  <g stroke="#047857" stroke-opacity=".12" stroke-width="1.25">
    <path d="M22 4 11 10.5v13L22 30l11-6.5v-13L22 4Z"/>
    <path d="M66 4 55 10.5v13L66 30l11-6.5v-13L66 4Z"/>
    <path d="M110 4 99 10.5v13L110 30l11-6.5v-13L110 4Z"/>
    <path d="M44 26 33 32.5v13L44 52l11-6.5v-13L44 26Z"/>
    <path d="M88 26 77 32.5v13L88 52l11-6.5v-13L88 26Z"/>
    <path d="M22 48 11 54.5v13L22 74l11-6.5v-13L22 48Z"/>
    <path d="M66 48 55 54.5v13L66 74l11-6.5v-13L66 48Z"/>
    <path d="M110 48 99 54.5v13L110 74l11-6.5v-13L110 48Z"/>
  </g>
</svg>
